<svg width="260" height="200" viewBox="0 0 260 200" fill="none" xmlns="http://www.w3.org/2000/svg">
<path d="M0.459961 46.5L21.05 79.89H61.11L61.01 199.11L90.69 160.55V79.25L117.97 79.19V46.5H0.459961Z" fill="#46833C"/>
<path d="M167.27 54.26C167.66 55.56 167.01 51.59 166.82 50.26C160.87 8.74998 119.88 2.99999 119.88 2.99999L41.3901 1.10999L19.8501 36.39L141 38.74C141 38.74 163.92 43 167.27 54.26Z" fill="#46833C"/>
<path d="M167.46 64.7C167.46 64.7 168.6 116.22 117.84 122.75L99.8401 122.69L99.9501 89.69L117.95 89.75C117.95 89.75 150.82 75.47 129.73 46.47H140.92C140.92 46.47 158.54 49.12 167.46 64.7Z" fill="#C4F4C7"/>
<path d="M108.67 137.11H100.25V132.69H123.06V137.11H114.67V157.63H108.67V137.11Z" fill="#46833C"/>
<path d="M141.84 148.23C141.84 153.9 138.07 158.07 131.48 158.07C124.89 158.07 121.26 153.92 121.26 148.33C121.26 142.55 125.15 138.47 131.75 138.47C137.88 138.47 141.84 142.36 141.84 148.23ZM127.11 148.23C127.11 151.83 128.83 153.97 131.61 153.97C134.39 153.97 135.99 151.83 135.99 148.26C135.99 144.34 134.4 142.49 131.53 142.49C128.86 142.53 127.11 144.31 127.11 148.27V148.23Z" fill="#46833C"/>
<path d="M145.79 157.63V131.22H151.56V157.63H145.79Z" fill="#46833C"/>
<path d="M176.08 148.23C176.08 153.9 172.32 158.07 165.73 158.07C159.14 158.07 155.51 153.92 155.51 148.33C155.51 142.55 159.39 138.47 166 138.47C172.12 138.47 176.08 142.36 176.08 148.23ZM161.36 148.23C161.36 151.83 163.08 153.97 165.85 153.97C168.62 153.97 170.24 151.83 170.24 148.26C170.24 144.34 168.64 142.49 165.77 142.49C163.1 142.53 161.36 144.31 161.36 148.27V148.23Z" fill="#46833C"/>
<path d="M180.71 132.69H192.18C198.07 132.69 202.06 135.69 202.06 140.41C202.06 145.83 197.5 148.32 192.06 148.32H186.73V157.63H180.73L180.71 132.69ZM186.71 144.02H191.28C194.06 144.02 196.02 143.02 196.02 140.52C196.02 138.02 194 137 191.41 137H186.71V144.02Z" fill="#C4F4C7"/>
<path d="M222.3 152.79C222.291 154.408 222.384 156.024 222.58 157.63H217.08C216.895 157.037 216.794 156.421 216.78 155.8C216.03 156.8 214.62 158.07 210.94 158.07C205.94 158.07 203.8 155.07 203.8 152.19C203.8 147.93 207.61 145.96 213.71 145.96H216.71V144.81C216.71 143.48 216.18 142.17 213.5 142.17C211.07 142.17 210.5 143.1 210.28 144.46H204.8C205.11 141.13 207.4 138.46 213.72 138.46C219.29 138.46 222.33 140.46 222.33 144.91L222.3 152.79ZM216.68 149.11H214.34C210.87 149.11 209.58 150.06 209.58 151.87C209.58 153.22 210.5 154.36 212.58 154.36C216.24 154.36 216.69 152.07 216.69 149.6L216.68 149.11Z" fill="#C4F4C7"/>
<path d="M231 138.91C233.15 145.37 235 151.13 235.36 152.91C235.81 151.03 237.03 146.83 239.51 138.91H245.24L238.24 158.17C236.24 163.56 234.6 165.17 229.6 165.17C229.09 165.17 227.9 165.17 226.9 165.03V160.86C227.29 160.86 227.9 160.94 228.39 160.94C229.277 161.066 230.18 160.856 230.92 160.351C231.66 159.846 232.184 159.082 232.39 158.21L224.82 138.91H231Z" fill="#C4F4C7"/>
</svg>
