<svg width="1952" height="498" viewBox="0 0 1952 498" fill="none" xmlns="http://www.w3.org/2000/svg">
<path d="M977.987 199.846V169.848H1119.32V199.846H1066.64V341.94H1030.67V199.846H977.987ZM1181.53 344.461C1168.47 344.461 1157.19 341.688 1147.66 336.142C1138.2 330.54 1130.89 322.753 1125.73 312.782C1120.58 302.754 1118 291.13 1118 277.909C1118 264.577 1120.58 252.925 1125.73 242.953C1130.89 232.926 1138.2 225.139 1147.66 219.593C1157.19 213.991 1168.47 211.19 1181.53 211.19C1194.58 211.19 1205.84 213.991 1215.31 219.593C1224.83 225.139 1232.17 232.926 1237.32 242.953C1242.48 252.925 1245.05 264.577 1245.05 277.909C1245.05 291.13 1242.48 302.754 1237.32 312.782C1232.17 322.753 1224.83 330.54 1215.31 336.142C1205.84 341.688 1194.58 344.461 1181.53 344.461ZM1181.69 316.731C1187.63 316.731 1192.59 315.05 1196.57 311.689C1200.55 308.272 1203.54 303.622 1205.56 297.74C1207.63 291.858 1208.67 285.164 1208.67 277.657C1208.67 270.151 1207.63 263.456 1205.56 257.574C1203.54 251.692 1200.55 247.043 1196.57 243.625C1192.59 240.208 1187.63 238.5 1181.69 238.5C1175.7 238.5 1170.66 240.208 1166.57 243.625C1162.54 247.043 1159.48 251.692 1157.41 257.574C1155.39 263.456 1154.39 270.151 1154.39 277.657C1154.39 285.164 1155.39 291.858 1157.41 297.74C1159.48 303.622 1162.54 308.272 1166.57 311.689C1170.66 315.05 1175.7 316.731 1181.69 316.731ZM1304.13 169.848V341.94H1268.33V169.848H1304.13ZM1391.12 344.461C1378.06 344.461 1366.78 341.688 1357.25 336.142C1347.79 330.54 1340.48 322.753 1335.32 312.782C1330.17 302.754 1327.59 291.13 1327.59 277.909C1327.59 264.577 1330.17 252.925 1335.32 242.953C1340.48 232.926 1347.79 225.139 1357.25 219.593C1366.78 213.991 1378.06 211.19 1391.12 211.19C1404.17 211.19 1415.43 213.991 1424.9 219.593C1434.42 225.139 1441.76 232.926 1446.91 242.953C1452.07 252.925 1454.64 264.577 1454.64 277.909C1454.64 291.13 1452.07 302.754 1446.91 312.782C1441.76 322.753 1434.42 330.54 1424.9 336.142C1415.43 341.688 1404.17 344.461 1391.12 344.461ZM1391.28 316.731C1397.22 316.731 1402.18 315.05 1406.16 311.689C1410.14 308.272 1413.13 303.622 1415.15 297.74C1417.22 291.858 1418.26 285.164 1418.26 277.657C1418.26 270.151 1417.22 263.456 1415.15 257.574C1413.13 251.692 1410.14 247.043 1406.16 243.625C1402.18 240.208 1397.22 238.5 1391.28 238.5C1385.29 238.5 1380.25 240.208 1376.16 243.625C1372.13 247.043 1369.07 251.692 1367 257.574C1364.98 263.456 1363.98 270.151 1363.98 277.657C1363.98 285.164 1364.98 291.858 1367 297.74C1369.07 303.622 1372.13 308.272 1376.16 311.689C1380.25 315.05 1385.29 316.731 1391.28 316.731Z" fill="#395A9B"/>
<path d="M1478.59 341.94V169.848H1546.49C1559.54 169.848 1570.66 172.341 1579.85 177.326C1589.03 182.256 1596.04 189.118 1600.85 197.913C1605.73 206.653 1608.16 216.736 1608.16 228.164C1608.16 239.592 1605.7 249.676 1600.77 258.415C1595.84 267.154 1588.7 273.96 1579.34 278.834C1570.04 283.707 1558.78 286.144 1545.56 286.144H1502.29V256.986H1539.68C1546.68 256.986 1552.45 255.782 1556.99 253.373C1561.58 250.908 1565 247.519 1567.24 243.205C1569.54 238.836 1570.69 233.822 1570.69 228.164C1570.69 222.45 1569.54 217.464 1567.24 213.207C1565 208.893 1561.58 205.56 1556.99 203.207C1552.4 200.798 1546.57 199.594 1539.51 199.594H1514.98V341.94H1478.59ZM1664.46 344.377C1656.23 344.377 1648.89 342.948 1642.45 340.091C1636.01 337.178 1630.91 332.893 1627.16 327.235C1623.46 321.521 1621.61 314.406 1621.61 305.891C1621.61 298.721 1622.93 292.699 1625.56 287.825C1628.19 282.951 1631.78 279.03 1636.31 276.061C1640.85 273.092 1646.01 270.851 1651.78 269.338C1657.6 267.826 1663.71 266.761 1670.09 266.145C1677.6 265.361 1683.65 264.633 1688.24 263.961C1692.84 263.232 1696.17 262.168 1698.24 260.767C1700.32 259.367 1701.35 257.294 1701.35 254.549V254.045C1701.35 248.723 1699.67 244.606 1696.31 241.693C1693.01 238.78 1688.3 237.323 1682.19 237.323C1675.75 237.323 1670.63 238.752 1666.82 241.609C1663.01 244.41 1660.49 247.939 1659.25 252.196L1626.15 249.507C1627.83 241.665 1631.13 234.886 1636.06 229.172C1640.99 223.402 1647.35 218.977 1655.14 215.896C1662.98 212.759 1672.05 211.19 1682.36 211.19C1689.53 211.19 1696.4 212.03 1702.95 213.711C1709.56 215.392 1715.41 217.996 1720.51 221.526C1725.67 225.055 1729.73 229.593 1732.7 235.138C1735.67 240.628 1737.15 247.211 1737.15 254.885V341.94H1703.2V324.041H1702.19C1700.12 328.075 1697.35 331.632 1693.87 334.713C1690.4 337.738 1686.23 340.119 1681.35 341.856C1676.48 343.536 1670.85 344.377 1664.46 344.377ZM1674.72 319.672C1679.98 319.672 1684.63 318.636 1688.66 316.563C1692.7 314.434 1695.86 311.577 1698.16 307.992C1700.46 304.407 1701.61 300.345 1701.61 295.808V282.111C1700.48 282.839 1698.94 283.511 1696.98 284.128C1695.08 284.688 1692.92 285.22 1690.51 285.724C1688.1 286.172 1685.7 286.592 1683.29 286.985C1680.88 287.321 1678.69 287.629 1676.73 287.909C1672.53 288.525 1668.86 289.505 1665.72 290.85C1662.59 292.194 1660.15 294.015 1658.41 296.312C1656.68 298.553 1655.81 301.354 1655.81 304.715C1655.81 309.588 1657.57 313.314 1661.1 315.891C1664.69 318.411 1669.23 319.672 1674.72 319.672ZM1782.4 390.341C1777.86 390.341 1773.6 389.976 1769.63 389.248C1765.71 388.576 1762.46 387.708 1759.88 386.643L1767.95 359.922C1772.15 361.21 1775.93 361.911 1779.29 362.023C1782.71 362.135 1785.65 361.35 1788.11 359.67C1790.63 357.989 1792.68 355.132 1794.25 351.099L1796.35 345.637L1750.05 212.871H1787.69L1814.41 307.656H1815.76L1842.73 212.871H1880.63L1830.46 355.889C1828.06 362.835 1824.78 368.885 1820.63 374.039C1816.54 379.249 1811.36 383.254 1805.09 386.055C1798.81 388.912 1791.25 390.341 1782.4 390.341Z" fill="#93ADCE"/>
<path d="M637.887 21.3002L553.339 48.8115H798.161C754.908 21.6733 698.393 1.64135 637.887 21.3002Z" fill="#395A9B"/>
<path d="M482.501 432.103L823.342 451.688C837.765 439.86 851.087 426.75 863.145 412.519L482.501 432.103Z" fill="#395A9B"/>
<path d="M550.56 457.283L630.762 486.977C648.463 492.094 666.669 495.271 685.057 496.452H718.63C746.869 494.381 777.513 486.436 803.439 466.404C803.439 466.404 808.382 463.308 816.253 457.283H550.56Z" fill="#395A9B"/>
<path d="M894.068 367.755L361.507 387.339L867.751 406.924C877.646 394.658 886.452 381.552 894.068 367.755Z" fill="#395A9B"/>
<path d="M345.988 118.755L889.946 138.339C887.018 132.744 883.903 126.981 880.527 121.199C874.238 113.518 867.558 106.166 860.514 99.1709L345.988 118.755Z" fill="#395A9B"/>
<path d="M10.4443 249.018L921.859 272.631C922.581 259.562 922.144 246.455 920.553 233.463L10.4443 249.018Z" fill="#93ADCE"/>
<path d="M806.742 54.4067L487.798 70.5591L854.826 93.5753C839.951 79.1635 823.864 66.0589 806.742 54.4067Z" fill="#395A9B"/>
<path d="M892.763 143.935L214.625 163.519L909.027 183.103C904.499 169.694 899.065 156.608 892.763 143.935Z" fill="#395A9B"/>
<path d="M910.835 188.699L83.2598 208.283L919.807 227.868C917.849 214.596 914.85 201.499 910.835 188.699Z" fill="#395A9B"/>
<path d="M921.486 278.227L119.464 297.811L914.511 317.396C918.029 304.58 920.364 291.469 921.486 278.227Z" fill="#395A9B"/>
<path d="M912.981 322.991L240.606 342.575L897.146 362.16C903.61 349.615 908.911 336.504 912.981 322.991Z" fill="#395A9B"/>
<path d="M663.844 472.952L716.263 395.072L709.837 235.57L760.826 233.414L758.229 169.287L538.584 178.068L579.692 242.04L654.579 239.047L663.844 472.952Z" fill="white" stroke="#93ADCE" stroke-width="11.0031" stroke-miterlimit="10"/>
<path d="M854.376 170.828C855.212 173.358 853.649 165.612 853.209 163.103C838.575 82.0543 761.487 74 761.487 74L614.617 76.5087L577.316 147.347L803.981 142.396C803.981 142.396 847.18 148.953 854.376 170.828Z" fill="white" stroke="#93ADCE" stroke-width="11.0031" stroke-miterlimit="10"/>
<path d="M854.462 198.644C854.462 198.644 865.333 299.257 771.829 320.097L738.247 322.848L732.877 258.303L766.437 255.552C766.437 255.552 825.282 222.389 781.049 169.024L801.911 167.307C801.911 167.307 835.207 169.596 854.462 198.644Z" fill="white" stroke="#93ADCE" stroke-width="11.0031" stroke-miterlimit="10"/>
</svg>
